<svg xmlns="http://www.w3.org/2000/svg" xmlns:xlink="http://www.w3.org/1999/xlink" version="1.0" id="katman_1" x="0px" y="0px" viewBox="0 0 1700 1200" style="enable-background:new 0 0 1700 1200;" xml:space="preserve">
<style type="text/css">
	.st0{fill:#FE4365;}
</style>
<path class="st0" d="M1200.3,624.3h-22.2c-1.7,0-3.3-0.7-4.6-1.9c-1.2-1.2-1.9-2.8-2-4.5v-5.1c0-1.7,0.7-3.3,2-4.5  c1.2-1.2,2.8-1.9,4.6-1.9h19c1.7,0,3.4-0.7,4.6-1.9c1.2-1.2,1.9-2.8,1.9-4.5c0-1.7-0.7-3.3-1.9-4.5c-1.2-1.2-2.9-1.9-4.6-1.9h-19.1  c-1.7,0-3.3-0.7-4.6-1.9c-1.2-1.2-1.9-2.8-2-4.5v-5.1c0-1.7,0.7-3.3,2-4.5c1.2-1.2,2.8-1.9,4.6-1.9h21.7c1.7,0,3.4-0.7,4.6-1.9  c1.2-1.2,1.9-2.8,1.9-4.5c0-1.7-0.7-3.3-1.9-4.5c-1.2-1.2-2.9-1.9-4.6-1.9h-26.1c-1,0-2,0.3-2.8,0.9c-0.8,0.6-1.3,1.5-1.5,2.5  l-13.9,64.7v1.3c0.2,1.5,1,2.9,2.3,3.8c1.2,1,2.7,1.4,4.3,1.3h38.3c1.7,0,3.4-0.7,4.6-1.9c1.2-1.2,1.9-2.8,1.9-4.5  c0-1.7-0.7-3.3-1.9-4.5c-1.2-1.2-2.9-1.9-4.6-1.9H1200.3z" fill="#FE4365"/>
<path class="st0" d="M717.7,563.1H709c-1.3,0-2.5,0.4-3.6,1.1c-1.1,0.7-1.9,1.6-2.5,2.8l-19.1,45.4c0,0.1,0,0.2-0.1,0.3  c-0.1,0.1-0.2,0.1-0.3,0.1c-0.4,0-0.4,0-0.4-0.4l-19.1-45.4c-0.5-1.2-1.2-2.2-2.2-3c-1.7-1.3-3.9,0.4-4.3,2.6L642.9,632  c-0.1,0.7,0,1.5,0.4,2.1c0.5,1,1.3,1.9,2.3,2.5c1,0.6,2.2,0.9,3.3,0.9h2.6c1.7-0.1,3.3-0.8,4.5-2c1.2-1.2,1.9-2.8,1.9-4.4v-42  c0-0.1,0-0.2,0.1-0.3c0.1-0.1,0.2-0.1,0.3-0.1s0.2,0,0.3,0.1c0.1,0.1,0.1,0.2,0.1,0.3l17.8,44.1c0.5,1.2,1.3,2.2,2.4,2.9  c1.1,0.7,2.4,1,3.7,1h1.7c1.3,0,2.5-0.4,3.6-1.1c1.1-0.7,1.9-1.6,2.5-2.8l17.8-43.7c0-0.1,0-0.2,0.1-0.3c0.1-0.1,0.2-0.1,0.3-0.1  c0.1,0,0.2,0,0.3,0.1c0.1,0.1,0.1,0.2,0.1,0.3v41.6c0,1.7,0.7,3.3,2,4.5c1.2,1.2,2.8,1.9,4.6,1.9h2.6c1.7,0,3.3-0.7,4.6-1.9  c1.2-1.2,1.9-2.8,2-4.5v-61.7c-0.3-1.7-1.2-3.3-2.5-4.4C721.1,563.9,719.4,563.2,717.7,563.1z" fill="#FE4365"/>
<path class="st0" d="M916.8,597.8h-19.1c-1.6,0-3.2,0.6-4.3,1.8c-1.1,1.1-1.8,2.7-1.8,4.2c0,1.6,0.6,3.1,1.8,4.2  c1.1,1.1,2.7,1.8,4.3,1.8h3.5c3.5,0,7,3,5.2,6.4c-2.6,5.6-7.8,8.6-16.1,8.6c-12.2,0-19.6-9-19.6-24.4c0-15.4,7.8-24.4,19.6-24.4  c2.7-0.1,5.4,0.4,7.9,1.6c2.4,1.2,4.5,3,6,5.2c0.7,1.2,1.7,2.3,2.9,3.1c1.2,0.8,2.6,1.2,4.1,1.2h3.9c0.9,0.1,1.8-0.1,2.6-0.4  c0.8-0.3,1.5-0.9,2.1-1.5c0.6-0.7,0.9-1.5,1.1-2.3c0.2-0.9,0.1-1.7-0.1-2.6c-2.7-5.6-7-10.3-12.5-13.5c-5.4-3.2-11.7-4.8-18-4.5  c-20,0-35.2,14.1-35.2,38.1c0,24,14.3,38.1,35.6,38.1c19.1,0,32.6-12,32.6-31.3v-3c0-0.8-0.1-1.7-0.5-2.5c-0.3-0.8-0.8-1.5-1.4-2.1  c-0.6-0.6-1.3-1.1-2.1-1.4C918.5,597.9,917.7,597.8,916.8,597.8z" fill="#FE4365"/>
<path class="st0" d="M803.8,567.4c-0.4-1.2-1.3-2.3-2.4-3.1c-1.1-0.8-2.4-1.2-3.7-1.2h-11.3c-1.3,0-2.6,0.4-3.7,1.2  c-1.1,0.8-1.9,1.8-2.4,3.1L758.6,629c-0.3,1-0.4,2-0.3,3c0.1,1,0.5,2,1.1,2.8c0.6,0.8,1.4,1.5,2.3,2c0.9,0.5,1.9,0.7,2.9,0.8h3.5  c1.3,0,2.6-0.4,3.7-1.2c1.1-0.8,1.9-1.8,2.4-3.1l2.6-8.1c0.4-1.2,1.3-2.3,2.4-3.1c1.1-0.8,2.4-1.2,3.7-1.2h17.8  c1.3,0,2.6,0.4,3.7,1.2c1.1,0.8,1.9,1.8,2.4,3.1l2.6,8.1c0.4,1.2,1.3,2.3,2.4,3.1c1.1,0.8,2.4,1.2,3.7,1.2h3.5c1,0,2-0.3,2.9-0.8  c0.9-0.5,1.7-1.2,2.3-2c0.6-0.8,1-1.8,1.1-2.8c0.1-1,0.1-2-0.3-3L803.8,567.4z M792.7,608.1h-1.3c-1,0-2-0.3-3-0.8  c-0.9-0.5-1.7-1.2-2.3-2c-0.6-0.8-1-1.8-1.1-2.8c-0.1-1-0.1-2,0.3-3l6.5-19.7c0-0.1,0-0.2,0.1-0.3c0.1-0.1,0.2-0.1,0.3-0.1  c0.1,0,0.2,0,0.3,0.1c0.1,0.1,0.1,0.2,0.1,0.3l6.5,19.7c0.2,1,0.2,2,0,3c-0.2,1-0.6,1.9-1.3,2.8c-0.6,0.8-1.4,1.5-2.3,2  C794.8,607.7,793.8,608,792.7,608.1z" fill="#FE4365"/>
<path class="st0" d="M967.2,563.1h-3c-1.7,0-3.3,0.7-4.6,1.9c-1.2,1.2-1.9,2.8-2,4.5v61.7c0,1.7,0.7,3.3,2,4.5  c1.2,1.2,2.8,1.9,4.6,1.9h3c1.7,0,3.3-0.7,4.6-1.9c1.2-1.2,1.9-2.8,2-4.5v-61.7c-0.1-1.7-0.8-3.2-2-4.4  C970.5,563.9,968.9,563.2,967.2,563.1z" fill="#FE4365"/>
<path class="st0" d="M1043.3,575.9c2.9-0.1,5.8,0.6,8.4,1.9c2.6,1.4,4.8,3.3,6.4,5.8c0.6,1.5,1.6,2.8,2.9,3.7  c1.3,0.9,2.9,1.4,4.5,1.4h3c0.9,0.1,1.8-0.1,2.6-0.4c0.8-0.3,1.5-0.9,2.1-1.5c0.6-0.7,0.9-1.5,1.1-2.3c0.2-0.9,0.1-1.7-0.1-2.6  c-4.3-12.9-16.1-20.1-31.3-20.1c-20,0-35.2,13.7-35.2,38.1s14.8,38.1,35.2,38.1c16.1,0,27-8.6,30.9-19.3c0.3-0.8,0.3-1.7,0.1-2.6  c-0.2-0.9-0.6-1.7-1.1-2.3c-0.6-0.7-1.3-1.2-2.1-1.5c-0.8-0.3-1.7-0.5-2.6-0.4h-3.5c-1.6,0.1-3.1,0.7-4.4,1.6  c-1.3,0.9-2.3,2.1-3,3.6c-1.4,2.5-3.6,4.5-6.1,5.8c-2.5,1.4-5.4,2-8.3,1.9c-11.3,0-19.1-8.6-19.1-24.4  C1023.8,584.5,1031.6,575.9,1043.3,575.9z" fill="#FE4365"/>
<path class="st0" d="M1268.5,563.1h-20.4c-1.7,0-3.3,0.7-4.6,1.9c-1.2,1.2-1.9,2.8-2,4.5v61.7c0,1.7,0.7,3.3,2,4.5  c1.2,1.2,2.8,1.9,4.6,1.9h20.4c23,0,37-14.1,37-37.3C1305.5,577.2,1291.1,563.1,1268.5,563.1z M1267.6,623.9h-3.5  c-1.7,0-3.3-0.7-4.6-1.9c-1.2-1.2-1.9-2.8-2-4.5v-34.7c0-1.7,0.7-3.3,2-4.5c1.2-1.2,2.8-1.9,4.6-1.9h3.5c14.3,0,21.7,7.3,21.7,23.6  C1289.4,616.2,1282,623.9,1267.6,623.9z" fill="#FE4365"/>
<path class="st0" d="M1383.7,624.3h-22.2c-1.7,0-3.3-0.7-4.6-1.9c-1.2-1.2-1.9-2.8-2-4.5v-5.1c0-1.7,0.7-3.3,2-4.5  c1.2-1.2,2.8-1.9,4.6-1.9h19.1c1.7,0,3.4-0.7,4.6-1.9c1.2-1.2,1.9-2.8,1.9-4.5s-0.7-3.3-1.9-4.5c-1.2-1.2-2.9-1.9-4.6-1.9h-19.1  c-1.7,0-3.3-0.7-4.6-1.9c-1.2-1.2-1.9-2.8-2-4.5v-5.1c0-1.7,0.7-3.3,2-4.5c1.2-1.2,2.8-1.9,4.6-1.9h21.7c1.7,0,3.4-0.7,4.6-1.9  c1.2-1.2,1.9-2.8,1.9-4.5c0-1.7-0.7-3.3-1.9-4.5c-1.2-1.2-2.9-1.9-4.6-1.9h-37.8c-1.7,0-3.3,0.7-4.6,1.9c-1.2,1.2-1.9,2.8-2,4.5  v61.7c0,1.7,0.7,3.3,2,4.5c1.2,1.2,2.8,1.9,4.6,1.9h38.3c1.7,0,3.3-0.7,4.6-1.9c1.2-1.2,1.9-2.8,2-4.5c0-0.8-0.1-1.7-0.5-2.5  c-0.3-0.8-0.8-1.5-1.4-2.1c-0.6-0.6-1.3-1.1-2.1-1.4C1385.4,624.5,1384.6,624.3,1383.7,624.3z" fill="#FE4365"/>
<path class="st0" d="M1482,563.1h-3c-1.7,0-3.3,0.7-4.6,1.9c-1.2,1.2-1.9,2.8-2,4.5v39.8c0,0.4,0,0.4-0.4,0.4h-0.4l-30.4-43.7  c-0.6-0.8-1.4-1.5-2.3-1.9c-0.9-0.4-1.9-0.7-2.9-0.6h-4.1c-1.7,0-3.3,0.7-4.6,1.9c-1.2,1.2-1.9,2.8-2,4.5v61.7c0,1.7,0.7,3.3,2,4.5  c1.2,1.2,2.8,1.9,4.6,1.9h3c1.7,0,3.3-0.7,4.6-1.9c1.2-1.2,1.9-2.8,2-4.5v-40.3c0-0.1,0-0.2,0.1-0.3c0.1-0.1,0.2-0.1,0.3-0.1h0.4  l30.9,43.7c0.6,0.8,1.4,1.5,2.3,1.9c0.9,0.4,1.9,0.7,2.9,0.6h3.9c1.7,0,3.3-0.7,4.6-1.9c1.2-1.2,1.9-2.8,2-4.5v-61.7  c-0.3-1.6-1.1-3.1-2.3-4.1C1485.2,563.8,1483.6,563.2,1482,563.1z" fill="#FE4365"/>
<path class="st0" d="M455.2,549.5l20.1,23.7c2.3,2.7,4.3,4.8,5.2,6.1c6,6,9.4,14.1,9.4,22.5c-0.6,9.9-7,16.7-13,24l-14.1,16.5  l-7.3,8.6c-0.3,0.3-0.4,0.7-0.5,1.1c-0.1,0.4,0,0.8,0.2,1.1c0.2,0.4,0.4,0.7,0.8,0.9c0.3,0.2,0.7,0.3,1.1,0.3h73.4  c11.2,0,25.3,9.4,24.5,23.7c0,6.5-2.7,12.7-7.3,17.3c-4.7,4.6-11,7.2-17.6,7.2h-115c-7.6,0-27.9,0.8-33.6-16.5  c-1.2-3.6-1.4-7.5-0.5-11.2c1.7-5.5,4.3-10.7,7.7-15.3c5.8-8.6,12-17.1,18.2-25.4c8-10.9,16.1-21.4,24.2-32.5  c0.3-0.4,0.4-0.8,0.4-1.3c0-0.5-0.2-0.9-0.4-1.3l-29.2-34.3c-0.2-0.2-0.4-0.4-0.7-0.6c-0.3-0.1-0.6-0.2-0.9-0.2s-0.6,0.1-0.9,0.2  c-0.3,0.1-0.5,0.3-0.7,0.6c-7.8,10.4-42.1,56.5-49.4,65.9c-7.3,9.3-25.3,9.9-35.3,0l-45.7-45.2c-0.3-0.3-0.7-0.5-1.1-0.6  c-0.4-0.1-0.8,0-1.2,0.1c-0.4,0.2-0.7,0.4-0.9,0.8c-0.2,0.3-0.4,0.7-0.3,1.1v86.9c0.1,6.2-1.7,12.2-5.3,17.3  c-3.6,5.1-8.6,8.9-14.5,11c-3.8,1.3-7.8,1.7-11.7,1.1c-3.9-0.6-7.7-2-10.9-4.3c-3.3-2.3-5.9-5.3-7.7-8.8c-1.8-3.5-2.8-7.4-2.8-11.3  V522.4c0.3-5.6,2.3-11,5.9-15.5c3.6-4.4,8.4-7.6,13.9-9.1c4.7-1.2,9.7-1.2,14.4,0c4.7,1.3,9,3.7,12.5,7.2l70.3,69.3  c0.2,0.2,0.5,0.4,0.7,0.5c0.3,0.1,0.6,0.1,0.9,0.1c0.3,0,0.6-0.1,0.8-0.3c0.3-0.1,0.5-0.3,0.7-0.6l49.9-68.1c2.3-2.8,5.2-5,8.5-6.5  c3.3-1.5,6.9-2.4,10.5-2.4h129.8c3.6,0,7.1,0.8,10.3,2.2c3.2,1.5,6.1,3.6,8.5,6.2c2.3,2.6,4.1,5.7,5.1,9.1c1,3.4,1.3,6.9,0.8,10.4  c-0.9,6-4,11.5-8.7,15.4c-4.7,3.9-10.7,6.1-16.9,6h-72.7c-0.4,0-0.7,0.1-1,0.3c-0.3,0.2-0.6,0.5-0.7,0.8c-0.2,0.3-0.2,0.7-0.2,1  C454.9,548.8,455,549.2,455.2,549.5z" fill="#FE4365"/>
</svg>